<?xml version="1.0" encoding="utf-8"?>
<!-- Generator: Adobe Illustrator 26.0.3, SVG Export Plug-In . SVG Version: 6.00 Build 0)  -->
<svg version="1.1" id="Layer_1" xmlns="http://www.w3.org/2000/svg" xmlns:xlink="http://www.w3.org/1999/xlink" x="0px" y="0px"
	 viewBox="0 0 40 40" style="enable-background:new 0 0 40 40;" xml:space="preserve">
<style type="text/css">
	.st0{fill:none;stroke:#323E48;stroke-width:1.5;stroke-linecap:round;stroke-linejoin:round;stroke-miterlimit:10;}
	.st1{fill:none;stroke:#00A0DF;stroke-width:1.5;stroke-linecap:round;stroke-linejoin:round;stroke-miterlimit:10;}
	.st2{fill:none;stroke:#A2A9AD;stroke-linecap:round;stroke-linejoin:round;stroke-miterlimit:10;}
	.st3{fill:none;stroke:#00A0DF;stroke-width:2;stroke-linecap:round;stroke-linejoin:round;stroke-miterlimit:10;}
	.st4{fill:none;stroke:#A2A9AD;stroke-width:1.25;stroke-linecap:round;stroke-linejoin:round;stroke-miterlimit:10;}
	.st5{fill:none;stroke:#323E48;stroke-width:1.5;stroke-miterlimit:10;}
	.st6{fill:none;stroke:#00A0DF;stroke-width:1.5;stroke-miterlimit:10;}
	.st7{fill:none;stroke:#00A0DF;stroke-width:1.5;stroke-linejoin:round;stroke-miterlimit:10;}
</style>
<g>
	<g>
		<g>
			<path class="st2" d="M12.86,12.14l-3.46,6.27l2.96,2.65c-0.06,0.54-0.11,1.09-0.09,1.65c0.01,0.56,0.07,1.11,0.16,1.65
				l-2.85,2.77l3.7,6.13l3.77-1.23c0.88,0.66,1.85,1.2,2.89,1.6l0.97,3.84l7.16-0.14l0.82-3.88c1.03-0.44,1.97-1.02,2.83-1.71
				l3.82,1.08L39,26.54l-2.96-2.65c0.06-0.54,0.11-1.09,0.09-1.65c-0.01-0.56-0.07-1.11-0.16-1.65l2.85-2.77l-3.7-6.13l-3.77,1.23
				c-0.88-0.66-1.85-1.2-2.89-1.6l-0.97-3.84l-7.16,0.14l-0.82,3.88"/>
		</g>
	</g>
	<g>
		<g>
			<path class="st2" d="M24.2,12.74c-0.18,0.23-0.37,0.46-0.57,0.71c-2.47,3.06-5.86,7.24-5.86,10.67c0,1.79,0.66,3.41,1.87,4.56
				c1.18,1.12,2.8,1.74,4.56,1.74c1.76,0,3.38-0.62,4.56-1.74c1.21-1.15,1.87-2.77,1.87-4.56c0-3.42-3.39-7.61-5.86-10.67
				C24.58,13.21,24.39,12.97,24.2,12.74z"/>
		</g>
	</g>
	<g>
		<circle class="st2" cx="16.18" cy="11.88" r="3.85"/>
		<path class="st2" d="M6.21,5.34c1.33,0,2.8,1.47,2.8,2.8c0-1.33,1.47-2.8,2.8-2.8c-1.33,0-2.8-1.47-2.8-2.8
			C9.01,3.86,7.53,5.34,6.21,5.34z"/>
		<circle class="st2" cx="6.2" cy="17.75" r="5.2"/>
	</g>
</g>
</svg>
