<?xml version="1.0" encoding="utf-8"?>
<!-- Generator: Adobe Illustrator 26.0.3, SVG Export Plug-In . SVG Version: 6.00 Build 0)  -->
<svg version="1.1" id="Layer_1" xmlns="http://www.w3.org/2000/svg" xmlns:xlink="http://www.w3.org/1999/xlink" x="0px" y="0px"
	 viewBox="0 0 40 40" style="enable-background:new 0 0 40 40;" xml:space="preserve">
<style type="text/css">
	.st0{fill:none;stroke:#323E48;stroke-width:1.5;stroke-linecap:round;stroke-linejoin:round;stroke-miterlimit:10;}
	.st1{fill:none;stroke:#00A0DF;stroke-width:1.5;stroke-linecap:round;stroke-linejoin:round;stroke-miterlimit:10;}
	.st2{fill:none;stroke:#A2A9AD;stroke-linecap:round;stroke-linejoin:round;stroke-miterlimit:10;}
	.st3{fill:none;stroke:#00A0DF;stroke-width:2;stroke-linecap:round;stroke-linejoin:round;stroke-miterlimit:10;}
	.st4{fill:none;stroke:#A2A9AD;stroke-width:1.25;stroke-linecap:round;stroke-linejoin:round;stroke-miterlimit:10;}
	.st5{fill:none;stroke:#323E48;stroke-width:1.5;stroke-miterlimit:10;}
	.st6{fill:none;stroke:#00A0DF;stroke-width:1.5;stroke-miterlimit:10;}
	.st7{fill:none;stroke:#00A0DF;stroke-width:1.5;stroke-linejoin:round;stroke-miterlimit:10;}
</style>
<g>
	<path class="st7" d="M26.76,22.67l-0.62-3.83l-3.38,0.06c-0.37-0.84-0.85-1.61-1.42-2.3l1.57-3l-3.15-2.27l-2.35,2.43
		c-0.83-0.33-1.71-0.54-2.63-0.62l-1.01-3.23l-3.83,0.62l0.06,3.38c-0.84,0.37-1.61,0.85-2.3,1.42l-3-1.57l-2.27,3.15l2.43,2.35
		c-0.33,0.83-0.54,1.71-0.62,2.63L1,22.9l0.62,3.83L5,26.68c0.37,0.84,0.85,1.61,1.42,2.3l-1.57,3L8,34.24l2.35-2.43
		c0.83,0.33,1.71,0.54,2.63,0.62l1.01,3.23l3.83-0.62l-0.06-3.38c0.84-0.37,1.61-0.85,2.3-1.42l3,1.57l2.27-3.15l-2.43-2.35
		c0.33-0.83,0.54-1.71,0.62-2.63L26.76,22.67z"/>
	<circle class="st7" cx="13.88" cy="22.78" r="5.18"/>
	<g>
		<path class="st0" d="M37.53,11.9c-0.01-0.29-0.04-0.57-0.08-0.84l1.46-1.42l-1.9-3.14l-1.93,0.63c-0.45-0.34-0.95-0.62-1.48-0.82
			l-0.5-1.97l-3.67,0.07L29.01,6.4C28.48,6.62,28,6.92,27.56,7.28L25.6,6.72l-1.77,3.22l1.52,1.36c-0.03,0.28-0.05,0.56-0.05,0.85
			c0.01,0.29,0.04,0.57,0.08,0.84l-1.46,1.42l1.9,3.14l1.93-0.63c0.45,0.34,0.95,0.62,1.48,0.82l0.5,1.97l3.67-0.07l0.42-1.99
			c0.53-0.23,1.01-0.52,1.45-0.88l1.96,0.55L39,14.1l-1.52-1.36C37.52,12.47,37.54,12.19,37.53,11.9z"/>
		<circle class="st0" cx="31.42" cy="12.02" r="3.3"/>
	</g>
</g>
</svg>
