<?xml version="1.0" encoding="utf-8"?>
<!-- Generator: Adobe Illustrator 26.0.3, SVG Export Plug-In . SVG Version: 6.00 Build 0)  -->
<svg version="1.1" id="Layer_1" xmlns="http://www.w3.org/2000/svg" xmlns:xlink="http://www.w3.org/1999/xlink" x="0px" y="0px"
	 viewBox="0 0 40 40" style="enable-background:new 0 0 40 40;" xml:space="preserve">
<style type="text/css">
	.st0{fill:none;stroke:#323E48;stroke-width:1.5;stroke-linecap:round;stroke-linejoin:round;stroke-miterlimit:10;}
	.st1{fill:none;stroke:#00A0DF;stroke-width:1.5;stroke-linecap:round;stroke-linejoin:round;stroke-miterlimit:10;}
	.st2{fill:none;stroke:#A2A9AD;stroke-linecap:round;stroke-linejoin:round;stroke-miterlimit:10;}
	.st3{fill:none;stroke:#00A0DF;stroke-width:2;stroke-linecap:round;stroke-linejoin:round;stroke-miterlimit:10;}
	.st4{fill:none;stroke:#A2A9AD;stroke-width:1.25;stroke-linecap:round;stroke-linejoin:round;stroke-miterlimit:10;}
	.st5{fill:none;stroke:#323E48;stroke-width:1.5;stroke-miterlimit:10;}
	.st6{fill:none;stroke:#00A0DF;stroke-width:1.5;stroke-miterlimit:10;}
	.st7{fill:none;stroke:#00A0DF;stroke-width:1.5;stroke-linejoin:round;stroke-miterlimit:10;}
</style>
<g>
	<path class="st2" d="M11.59,18.83c-0.56,0.21-1.16,0.32-1.79,0.32c-2.85,0-5.16-2.31-5.16-5.16S6.95,8.82,9.8,8.82
		s5.16,2.31,5.16,5.16c0,0.63-0.11,1.24-0.32,1.79"/>
	<path class="st2" d="M14.31,21.55c-1.32,0.79-2.86,1.24-4.51,1.24c-4.86,0-8.8-3.94-8.8-8.8s3.94-8.8,8.8-8.8s8.8,3.94,8.8,8.8"/>
	<g>
		<g>
			<path class="st2" d="M18.88,26.12L8.7,15.94c0,0-1.55-1.43,0.09-3.08c1.64-1.64,3.12,0.18,3.12,0.18l5,5"/>
			<path class="st2" d="M19.94,21.06l-3.33-3.33c0,0-1.55-1.43,0.09-3.08c1.64-1.64,3.12,0.18,3.12,0.18l4.14,4.14"/>
			<path class="st2" d="M23.96,18.97l-2.85-2.85c0,0-1.55-1.43,0.09-3.08c1.64-1.64,3.12,0.18,3.12,0.18l3.66,3.66"/>
			<path class="st2" d="M27.98,16.88l-2.37-2.37c0,0-1.55-1.43,0.09-3.08c1.64-1.64,3.12,0.18,3.12,0.18l1.25,1.25
				c0,0,2.67,2.5,4.46,5.31c1.35,2.12,2.89,4.94,4.16,7.44c0.56,1.09,0.34,2.42-0.52,3.28l-5.09,5.09c-0.93,0.93-2.39,1.1-3.51,0.39
				c-0.75-0.47-1.58-0.96-2.19-1.2c-1.9-0.76-3.4-1.1-3.4-1.1l-10.83-3.11c0,0-2.05-0.5-1.41-2.74c0.64-2.23,2.81-1.35,2.81-1.35
				l4.32,1.24"/>
		</g>
	</g>
</g>
</svg>
