<?xml version="1.0" encoding="utf-8"?>
<!-- Generator: Adobe Illustrator 26.0.3, SVG Export Plug-In . SVG Version: 6.00 Build 0)  -->
<svg version="1.1" id="Layer_1" xmlns="http://www.w3.org/2000/svg" xmlns:xlink="http://www.w3.org/1999/xlink" x="0px" y="0px"
	 viewBox="0 0 40 40" style="enable-background:new 0 0 40 40;" xml:space="preserve">
<style type="text/css">
	.st0{fill:none;stroke:#323E48;stroke-width:1.5;stroke-linecap:round;stroke-linejoin:round;stroke-miterlimit:10;}
	.st1{fill:none;stroke:#00A0DF;stroke-width:1.5;stroke-linecap:round;stroke-linejoin:round;stroke-miterlimit:10;}
	.st2{fill:none;stroke:#A2A9AD;stroke-linecap:round;stroke-linejoin:round;stroke-miterlimit:10;}
	.st3{fill:none;stroke:#00A0DF;stroke-width:2;stroke-linecap:round;stroke-linejoin:round;stroke-miterlimit:10;}
	.st4{fill:none;stroke:#A2A9AD;stroke-width:1.25;stroke-linecap:round;stroke-linejoin:round;stroke-miterlimit:10;}
	.st5{fill:none;stroke:#323E48;stroke-width:1.5;stroke-miterlimit:10;}
	.st6{fill:none;stroke:#00A0DF;stroke-width:1.5;stroke-miterlimit:10;}
	.st7{fill:none;stroke:#00A0DF;stroke-width:1.5;stroke-linejoin:round;stroke-miterlimit:10;}
</style>
<g>
	<polyline class="st2" points="23.3,25.78 29.09,28.26 39,24.13 39,12.57 29.09,8.43 19.17,12.57 19.17,20.41 	"/>
	<polyline class="st2" points="20.83,11.88 20.83,5.96 10.91,1.83 1,5.96 1,17.52 7.78,20.35 	"/>
	<polyline class="st2" points="23.3,22.48 13.39,26.61 3.48,22.48 	"/>
	<line class="st2" x1="13.39" y1="26.61" x2="13.39" y2="38.17"/>
	<polyline class="st2" points="20.83,5.96 10.91,10.09 1,5.96 	"/>
	<line class="st2" x1="10.91" y1="10.09" x2="10.91" y2="18.76"/>
	<line class="st2" x1="29.09" y1="16.7" x2="29.09" y2="28.26"/>
	<polyline class="st2" points="39,12.57 29.09,16.7 19.17,12.57 	"/>
	<polygon class="st2" points="13.39,18.35 3.48,22.48 3.48,34.04 13.39,38.17 23.3,34.04 23.3,25.78 23.3,22.48 	"/>
</g>
</svg>
