<?xml version="1.0" encoding="utf-8"?>
<!-- Generator: Adobe Illustrator 26.0.3, SVG Export Plug-In . SVG Version: 6.00 Build 0)  -->
<svg version="1.1" id="Layer_1" xmlns="http://www.w3.org/2000/svg" xmlns:xlink="http://www.w3.org/1999/xlink" x="0px" y="0px"
	 viewBox="0 0 40 40" style="enable-background:new 0 0 40 40;" xml:space="preserve">
<style type="text/css">
	.st0{fill:none;stroke:#323E48;stroke-width:1.5;stroke-linecap:round;stroke-linejoin:round;stroke-miterlimit:10;}
	.st1{fill:none;stroke:#00A0DF;stroke-width:1.5;stroke-linecap:round;stroke-linejoin:round;stroke-miterlimit:10;}
	.st2{fill:none;stroke:#A2A9AD;stroke-linecap:round;stroke-linejoin:round;stroke-miterlimit:10;}
	.st3{fill:none;stroke:#00A0DF;stroke-width:2;stroke-linecap:round;stroke-linejoin:round;stroke-miterlimit:10;}
	.st4{fill:none;stroke:#A2A9AD;stroke-width:1.25;stroke-linecap:round;stroke-linejoin:round;stroke-miterlimit:10;}
	.st5{fill:none;stroke:#323E48;stroke-width:1.5;stroke-miterlimit:10;}
	.st6{fill:none;stroke:#00A0DF;stroke-width:1.5;stroke-miterlimit:10;}
	.st7{fill:none;stroke:#00A0DF;stroke-width:1.5;stroke-linejoin:round;stroke-miterlimit:10;}
</style>
<g>
	<path class="st1" d="M11.57,18.81c-0.56,0.21-1.16,0.32-1.79,0.32c-2.85,0-5.15-2.31-5.15-5.15s2.31-5.15,5.15-5.15
		s5.15,2.31,5.15,5.15c0,0.63-0.11,1.23-0.32,1.79"/>
	<path class="st1" d="M14.29,21.53c-1.32,0.79-2.86,1.24-4.5,1.24C4.93,22.77,1,18.83,1,13.98s3.93-8.79,8.79-8.79
		s8.79,3.93,8.79,8.79"/>
	<g>
		<g>
			<path class="st0" d="M18.91,26.12L8.74,15.96c0,0-1.55-1.43,0.09-3.07c1.64-1.64,3.11,0.18,3.11,0.18l4.99,4.99"/>
			<path class="st0" d="M19.96,21.08l-3.32-3.32c0,0-1.55-1.43,0.09-3.07c1.64-1.64,3.11,0.18,3.11,0.18L23.98,19"/>
			<path class="st0" d="M23.98,18.99l-2.85-2.85c0,0-1.55-1.43,0.09-3.07c1.64-1.64,3.11,0.18,3.11,0.18l3.65,3.65"/>
			<path class="st0" d="M28,16.9l-2.37-2.37c0,0-1.55-1.43,0.09-3.07c1.64-1.64,3.11,0.18,3.11,0.18l1.25,1.25
				c0,0,2.67,2.5,4.46,5.3c1.35,2.12,2.88,4.93,4.15,7.42c0.55,1.09,0.34,2.41-0.52,3.28l-5.08,5.08c-0.93,0.93-2.39,1.1-3.5,0.39
				c-0.75-0.47-1.58-0.96-2.19-1.2c-1.89-0.76-3.4-1.1-3.4-1.1l-10.82-3.11c0,0-2.05-0.5-1.41-2.73s2.81-1.35,2.81-1.35l4.32,1.24"
				/>
		</g>
	</g>
</g>
</svg>
