<?xml version="1.0" encoding="utf-8"?>
<!-- Generator: Adobe Illustrator 26.0.3, SVG Export Plug-In . SVG Version: 6.00 Build 0)  -->
<svg version="1.1" id="Layer_1" xmlns="http://www.w3.org/2000/svg" xmlns:xlink="http://www.w3.org/1999/xlink" x="0px" y="0px"
	 viewBox="0 0 40 40" style="enable-background:new 0 0 40 40;" xml:space="preserve">
<style type="text/css">
	.st0{fill:none;stroke:#323E48;stroke-width:1.5;stroke-linecap:round;stroke-linejoin:round;stroke-miterlimit:10;}
	.st1{fill:none;stroke:#00A0DF;stroke-width:1.5;stroke-linecap:round;stroke-linejoin:round;stroke-miterlimit:10;}
	.st2{fill:none;stroke:#A2A9AD;stroke-linecap:round;stroke-linejoin:round;stroke-miterlimit:10;}
	.st3{fill:none;stroke:#00A0DF;stroke-width:2;stroke-linecap:round;stroke-linejoin:round;stroke-miterlimit:10;}
	.st4{fill:none;stroke:#A2A9AD;stroke-width:1.25;stroke-linecap:round;stroke-linejoin:round;stroke-miterlimit:10;}
	.st5{fill:none;stroke:#323E48;stroke-width:1.5;stroke-miterlimit:10;}
	.st6{fill:none;stroke:#00A0DF;stroke-width:1.5;stroke-miterlimit:10;}
	.st7{fill:none;stroke:#00A0DF;stroke-width:1.5;stroke-linejoin:round;stroke-miterlimit:10;}
</style>
<g>
	<circle class="st2" cx="34.55" cy="34.96" r="4.04"/>
	<path class="st2" d="M15.15,2.21h0.81c1.79,0,3.23,1.45,3.23,3.23v9.85c0,2.5-0.96,4.9-2.69,6.71l-6.2,8.1L4.1,22
		C2.37,20.2,1.4,17.8,1.4,15.3v-3.38V5.45c0-1.79,1.45-3.23,3.23-3.23h0.81"/>
	<circle class="st2" cx="6.66" cy="2.21" r="1.21"/>
	<circle class="st2" cx="13.94" cy="2.21" r="1.21"/>
	<path class="st2" d="M10.3,29.7v2.83c0,3.57,2.9,6.47,6.47,6.47l0,0c3.57,0,6.47-2.9,6.47-6.47V12.32c0-3.13,2.53-5.66,5.66-5.66
		l0,0c3.13,0,5.66,2.53,5.66,5.66v21.43"/>
	<path class="st2" d="M19.19,15.55c0,4.91-3.98,8.89-8.89,8.89S1.4,20.46,1.4,15.55"/>
	<circle class="st2" cx="34.55" cy="34.96" r="1.21"/>
</g>
</svg>
