<svg xmlns="http://www.w3.org/2000/svg" viewBox="0 0 690.02 83.4"><defs><style>.cls-1{fill:#139fda;}.cls-2{fill:#5b6871;}</style></defs><g id="Layer_1" data-name="Layer 1"><path class="cls-1" d="M101.49,7.62h14.9c7.24,0,12.29,5.06,12.29,12.56s-5.05,12.73-12.29,12.73H108.5V46.24h-7Zm13.59,19.2c4.08,0,6.48-2.61,6.48-6.64s-2.4-6.53-6.37-6.53H108.5V26.82Z"/><path class="cls-1" d="M131.84,18.5h6.64v3.21a17,17,0,0,1-.11,1.9h.11a10.75,10.75,0,0,1,9.84-5.77c6.15,0,9.63,3.21,9.63,10.56V46.24H151.1V29.81c0-3.37-.87-5.66-4.41-5.66a7.65,7.65,0,0,0-7.45,5.66,11.7,11.7,0,0,0-.49,3.7V46.24h-6.91Z"/><path class="cls-1" d="M175.36,17.84c8,0,12.29,5.82,12.29,13.17,0,.81-.16,2.66-.16,2.66H168.34c.44,4.84,4.19,7.35,8.32,7.35a13.68,13.68,0,0,0,8-3.05l2.67,5a17.37,17.37,0,0,1-11.16,4c-9.19,0-14.9-6.64-14.9-14.52C161.27,23.83,167.09,17.84,175.36,17.84Zm5.33,11.1c-.11-3.75-2.45-5.77-5.49-5.77-3.54,0-6,2.18-6.64,5.77Z"/><path class="cls-1" d="M191,18.5h6.9V34.92c0,3.38.87,5.66,4.3,5.66,5,0,7.78-4.4,7.78-9.35V18.5h6.91V46.24h-6.64V43.08a17.34,17.34,0,0,1,.11-1.95h-.11a10.69,10.69,0,0,1-9.63,5.76c-5.93,0-9.62-3-9.62-10.55Z"/><path class="cls-1" d="M222.58,18.5h6.63v3.21a17,17,0,0,1-.11,1.9h.11a10.5,10.5,0,0,1,9-5.77c4.25,0,7,2,8.11,5.72h.11a10.83,10.83,0,0,1,9.46-5.72c5.77,0,9.09,3.27,9.09,10.56V46.24H258.1V29.7c0-3.15-.6-5.55-3.81-5.55-3.54,0-5.87,2.83-6.69,6.31a15.07,15.07,0,0,0-.33,3.59V46.24h-6.91V29.7c0-3-.48-5.55-3.75-5.55-3.59,0-5.93,2.83-6.8,6.37a14.53,14.53,0,0,0-.32,3.53V46.24h-6.91Z"/><path class="cls-1" d="M284.37,28.83h.93v-.38c0-3.64-2.29-4.89-5.33-4.89a14.89,14.89,0,0,0-7.62,2.66l-2.61-4.95a18.71,18.71,0,0,1,10.88-3.43c7.29,0,11.53,4,11.53,11.05V46.24h-6.36V44a17.34,17.34,0,0,1,.11-2h-.11a9,9,0,0,1-8.43,4.89c-4.95,0-9.41-3.1-9.41-8.65C268,29.43,279.86,28.83,284.37,28.83ZM279.1,41.51c3.64,0,6.25-3.92,6.25-7.29v-.66h-1.19c-3.54,0-9.25.49-9.25,4.36C274.91,39.77,276.27,41.51,279.1,41.51Z"/><path class="cls-1" d="M298.41,24.43h-3.59v-5.5h3.75v-8h6.75v8h6.31v5.5h-6.31V35.2c0,4.57,3.59,5.22,5.49,5.22a6.28,6.28,0,0,0,1.25-.11v6a12.07,12.07,0,0,1-2.12.16c-3.86,0-11.53-1.14-11.53-10.44Z"/><path class="cls-1" d="M315.76,7.62h6.86v6.14h-6.86Zm0,10.88h6.91V46.24h-6.91Z"/><path class="cls-1" d="M341.38,17.84c7.24,0,10.67,4.14,10.67,4.14L349,26.71a10.87,10.87,0,0,0-7.23-3,8.24,8.24,0,0,0-8.44,8.59A8.45,8.45,0,0,0,342,41c4.68,0,8.16-3.54,8.16-3.54l2.67,4.9a15.81,15.81,0,0,1-11.43,4.51c-9.19,0-15.06-6.47-15.06-14.52C326.32,24.48,332.19,17.84,341.38,17.84Z"/><path class="cls-1" d="M369.24,36.34s4.18,4.08,9.62,4.08c2.94,0,5.61-1.52,5.61-4.68,0-6.91-18.23-5.71-18.23-17.57,0-6.42,5.55-11.21,12.95-11.21,7.62,0,11.53,4.14,11.53,4.14l-3,5.71a14.11,14.11,0,0,0-8.54-3.37c-3.27,0-5.82,1.9-5.82,4.62,0,6.86,18.16,5.17,18.16,17.52,0,6.14-4.67,11.31-12.72,11.31a18.69,18.69,0,0,1-13.33-5.28Z"/><path class="cls-1" d="M408.51,17.84c7.24,0,10.66,4.14,10.66,4.14l-3,4.73a10.91,10.91,0,0,0-7.24-3,8.24,8.24,0,0,0-8.43,8.59A8.45,8.45,0,0,0,409.11,41c4.68,0,8.16-3.54,8.16-3.54l2.67,4.9a15.84,15.84,0,0,1-11.43,4.51c-9.19,0-15.07-6.47-15.07-14.52C393.44,24.48,399.32,17.84,408.51,17.84Z"/><path class="cls-1" d="M437.23,28.83h.93v-.38c0-3.64-2.29-4.89-5.33-4.89a14.89,14.89,0,0,0-7.62,2.66l-2.61-4.95a18.71,18.71,0,0,1,10.88-3.43c7.29,0,11.53,4,11.53,11.05V46.24h-6.36V44a17.34,17.34,0,0,1,.11-2h-.11a9,9,0,0,1-8.43,4.89c-5,0-9.41-3.1-9.41-8.65C420.81,29.43,432.72,28.83,437.23,28.83ZM432,41.51c3.64,0,6.25-3.92,6.25-7.29v-.66H437c-3.54,0-9.25.49-9.25,4.36C427.77,39.77,429.13,41.51,432,41.51Z"/><path class="cls-1" d="M449.86,7.62h6.85V36.56c0,3,1,3.8,2.83,3.8.54,0,1,0,1,0v6a16,16,0,0,1-2.17.16c-3.81,0-8.54-1-8.54-8.92Z"/><path class="cls-1" d="M475.86,17.84c8,0,12.29,5.82,12.29,13.17,0,.81-.16,2.66-.16,2.66H468.84c.44,4.84,4.19,7.35,8.32,7.35a13.72,13.72,0,0,0,8-3.05l2.66,5a17.33,17.33,0,0,1-11.15,4c-9.19,0-14.9-6.64-14.9-14.52C461.77,23.83,467.59,17.84,475.86,17.84Zm5.33,11.1c-.11-3.75-2.45-5.77-5.5-5.77-3.53,0-6,2.18-6.63,5.77Z"/><path class="cls-2" d="M523.46,36.34H509.91l-3.26,9.9h-7.24L513,7.62h7.34L534,46.24h-7.23Zm-6.8-22s-.87,3.81-1.64,6L511.6,30.63h10.11l-3.42-10.34c-.71-2.17-1.53-6-1.53-6Z"/><path class="cls-2" d="M535.86,18.5h6.64v3.21a17,17,0,0,1-.11,1.9h.11a10.75,10.75,0,0,1,9.84-5.77c6.15,0,9.63,3.21,9.63,10.56V46.24h-6.85V29.81c0-3.37-.87-5.66-4.41-5.66a7.65,7.65,0,0,0-7.45,5.66,11.7,11.7,0,0,0-.49,3.7V46.24h-6.91Z"/><path class="cls-2" d="M577.75,51.79c4.24,0,7.83-1.8,7.83-6.75V43.41a13.32,13.32,0,0,1,.11-1.47h-.11c-1.63,2.45-4,3.75-7.73,3.75-7.94,0-12.45-6.41-12.45-14s4.29-13.82,12.29-13.82c6,0,8.22,3.54,8.22,3.54h.16a4.72,4.72,0,0,1-.06-.76V18.5h6.48V44.55c0,9.52-7.4,13.11-14.64,13.11A22.13,22.13,0,0,1,568,55.27L570.08,50A18.6,18.6,0,0,0,577.75,51.79Zm8-20.08c0-6.31-3.1-8-6.85-8-4.19,0-6.53,3-6.53,7.72,0,4.84,2.5,8.43,7,8.43C582.64,39.87,585.74,38,585.74,31.71Z"/><path class="cls-2" d="M610.28,17.84c8,0,12.29,5.82,12.29,13.17,0,.81-.16,2.66-.16,2.66H603.26c.43,4.84,4.19,7.35,8.32,7.35a13.72,13.72,0,0,0,8-3.05l2.66,5a17.33,17.33,0,0,1-11.15,4c-9.19,0-14.9-6.64-14.9-14.52C596.19,23.83,602,17.84,610.28,17.84Zm5.33,11.1c-.11-3.75-2.45-5.77-5.5-5.77-3.53,0-6,2.18-6.63,5.77Z"/><path class="cls-2" d="M625.94,7.62h6.86V36.56c0,3,1,3.8,2.83,3.8.54,0,1,0,1,0v6a16,16,0,0,1-2.18.16c-3.81,0-8.54-1-8.54-8.92Z"/><path class="cls-2" d="M639.43,18.5h6.91V34.92c0,3.38.87,5.66,4.3,5.66,5,0,7.78-4.4,7.78-9.35V18.5h6.91V46.24h-6.64V43.08a17.34,17.34,0,0,1,.11-1.95h-.11a10.7,10.7,0,0,1-9.63,5.76c-5.93,0-9.63-3-9.63-10.55Z"/><path class="cls-2" d="M671.8,38A11.61,11.61,0,0,0,679.36,41c2,0,3.65-.87,3.65-2.51,0-4.13-13.49-3.59-13.49-12.51,0-5.17,4.62-8.16,10.6-8.16,6.26,0,9.3,3.16,9.3,3.16l-2.55,5.11a10.55,10.55,0,0,0-6.8-2.39c-1.8,0-3.54.76-3.54,2.5,0,3.92,13.49,3.43,13.49,12.35,0,4.62-4,8.32-10.6,8.32a15.51,15.51,0,0,1-10.77-4.08Z"/><path class="cls-2" d="M110,74h-5.19l-1.25,3.8h-2.77L106,63h2.81L114,77.76h-2.77Zm-2.61-8.43s-.33,1.46-.62,2.29l-1.31,4h3.87l-1.31-4c-.27-.83-.59-2.29-.59-2.29Z"/><path class="cls-1" d="M119.5,63h5.29c2.66,0,4.56,1.37,4.56,3.81a3.5,3.5,0,0,1-1.79,3.16v0A3.46,3.46,0,0,1,130,73.46c0,3-2.37,4.3-5.1,4.3H119.5Zm5.29,6a1.77,1.77,0,0,0,1.83-1.9,1.7,1.7,0,0,0-1.87-1.83h-2.57V69Zm.27,6.43a2.14,2.14,0,1,0,0-4.27h-2.88v4.27Z"/><path class="cls-1" d="M137.1,71.09h.35v-.15c0-1.39-.87-1.87-2-1.87a5.66,5.66,0,0,0-2.91,1l-1-1.89a7.11,7.11,0,0,1,4.16-1.32c2.79,0,4.42,1.54,4.42,4.23v6.65h-2.44v-.88a6.94,6.94,0,0,1,0-.75h0A3.44,3.44,0,0,1,134.41,78a3.34,3.34,0,0,1-3.6-3.32C130.81,71.32,135.37,71.09,137.1,71.09Zm-2,4.85a2.73,2.73,0,0,0,2.4-2.79V72.9H137c-1.36,0-3.54.19-3.54,1.67A1.41,1.41,0,0,0,135.08,75.94Z"/><path class="cls-1" d="M142.08,67.13h2.54V69c0,.39,0,.75,0,.75h0A3.66,3.66,0,0,1,148,67a3.17,3.17,0,0,1,.48,0v2.6a5,5,0,0,0-.63,0A3,3,0,0,0,145,71.82a5.57,5.57,0,0,0-.23,1.73v4.21h-2.65Z"/><path class="cls-1" d="M149.52,67.13h2.54V69c0,.39,0,.75,0,.75h0A3.66,3.66,0,0,1,155.43,67a3.17,3.17,0,0,1,.48,0v2.6a4.7,4.7,0,0,0-.62,0,3,3,0,0,0-2.9,2.23,5.89,5.89,0,0,0-.23,1.73v4.21h-2.64Z"/><path class="cls-1" d="M156.85,79.46a2.34,2.34,0,0,0,1.19.44,2,2,0,0,0,1.83-1.37l.4-.94-4.48-10.46h3L161,73.26a12.06,12.06,0,0,1,.39,1.43h0a14.3,14.3,0,0,1,.36-1.39l2.08-6.17h2.9L162,79.36a4,4,0,0,1-3.84,2.77,4,4,0,0,1-2.2-.69Z"/><path class="cls-1" d="M167.69,70.65H174V73h-6.26Z"/><path class="cls-1" d="M188.16,73.19a11.45,11.45,0,0,1,.27,1.57h0a15.44,15.44,0,0,1,.25-1.57L191.16,63h2.77l-3.81,14.79H187L184.75,69a18.42,18.42,0,0,1-.38-1.94h0A18.42,18.42,0,0,1,184,69l-2.27,8.75h-3.1L174.87,63h2.77L180,73.19a15.44,15.44,0,0,1,.25,1.57h0a11.45,11.45,0,0,1,.27-1.57L183.2,63h2.34Z"/><path class="cls-1" d="M199.43,66.88c3.07,0,4.71,2.23,4.71,5,0,.32-.06,1-.06,1h-7.33a3,3,0,0,0,3.18,2.82A5.27,5.27,0,0,0,203,74.59l1,1.89A6.63,6.63,0,0,1,199.75,78,5.45,5.45,0,0,1,194,72.44,5.25,5.25,0,0,1,199.43,66.88Zm2,4.25a2.06,2.06,0,0,0-2.11-2.21,2.48,2.48,0,0,0-2.54,2.21Z"/><path class="cls-1" d="M205.58,63h2.65v5.12c0,.52,0,.9,0,.9h0a4.09,4.09,0,0,1,3.66-2.11c2.36,0,3.69,1.23,3.69,4v6.84H213V71.47c0-1.3-.33-2.17-1.68-2.17a3,3,0,0,0-2.88,2.21,4.91,4.91,0,0,0-.16,1.37v4.88h-2.65Z"/><path class="cls-1" d="M217.6,67.13h2.54v1.23a6.78,6.78,0,0,1,0,.73h0a4,4,0,0,1,3.46-2.21,2.92,2.92,0,0,1,3.1,2.19h.05a4.13,4.13,0,0,1,3.62-2.19c2.21,0,3.48,1.25,3.48,4v6.84H231.2V71.42c0-1.2-.23-2.12-1.45-2.12a2.77,2.77,0,0,0-2.57,2.42,5.87,5.87,0,0,0-.12,1.37v4.67h-2.65V71.42c0-1.14-.18-2.12-1.43-2.12a2.81,2.81,0,0,0-2.61,2.44,5.7,5.7,0,0,0-.12,1.35v4.67H217.6Z"/><path class="cls-1" d="M235.87,63h2.63v2.35h-2.63Zm0,4.16h2.65V77.76h-2.65Z"/><path class="cls-1" d="M240.54,63h2.62V74.05c0,1.16.4,1.46,1.09,1.46a2.66,2.66,0,0,0,.39,0V77.8a6.15,6.15,0,0,1-.83.06c-1.46,0-3.27-.38-3.27-3.42Z"/><path class="cls-1" d="M245.71,63h2.62V74.05c0,1.16.4,1.46,1.08,1.46a2.9,2.9,0,0,0,.4,0V77.8a6.34,6.34,0,0,1-.83.06c-1.46,0-3.27-.38-3.27-3.42Z"/><path class="cls-1" d="M255.66,66.88c3.07,0,4.71,2.23,4.71,5,0,.32-.06,1-.06,1H253a3,3,0,0,0,3.18,2.82,5.27,5.27,0,0,0,3.07-1.17l1,1.89A6.63,6.63,0,0,1,256,78a5.45,5.45,0,0,1-5.71-5.57A5.25,5.25,0,0,1,255.66,66.88Zm2,4.25a2.06,2.06,0,0,0-2.11-2.21,2.48,2.48,0,0,0-2.54,2.21Z"/><path class="cls-1" d="M261.81,67.13h2.54V69c0,.39,0,.75,0,.75h0A3.66,3.66,0,0,1,267.73,67a3.17,3.17,0,0,1,.48,0v2.6a5,5,0,0,0-.63,0,3,3,0,0,0-2.89,2.23,5.57,5.57,0,0,0-.23,1.73v4.21h-2.65Z"/><path class="cls-2" d="M274,63h5.7a4.53,4.53,0,0,1,4.71,4.81,4.59,4.59,0,0,1-4.71,4.87h-3v5.11H274Zm5.2,7.35a2.32,2.32,0,0,0,2.48-2.54,2.29,2.29,0,0,0-2.43-2.5h-2.57v5Z"/><path class="cls-2" d="M291,71.09h.35v-.15c0-1.39-.87-1.87-2-1.87a5.71,5.71,0,0,0-2.92,1l-1-1.89a7.16,7.16,0,0,1,4.17-1.32c2.79,0,4.42,1.54,4.42,4.23v6.65h-2.44v-.88a6.94,6.94,0,0,1,0-.75h0A3.44,3.44,0,0,1,288.31,78a3.34,3.34,0,0,1-3.6-3.32C284.71,71.32,289.27,71.09,291,71.09Zm-2,4.85a2.73,2.73,0,0,0,2.39-2.79V72.9h-.46c-1.35,0-3.54.19-3.54,1.67A1.41,1.41,0,0,0,289,75.94Z"/><path class="cls-2" d="M301,66.88a5.39,5.39,0,0,1,4.08,1.59l-1.17,1.81a4.15,4.15,0,0,0-2.77-1.15,3.16,3.16,0,0,0-3.23,3.29,3.25,3.25,0,0,0,3.32,3.34,4.87,4.87,0,0,0,3.12-1.36l1,1.88A6,6,0,0,1,301,78a5.57,5.57,0,1,1,0-11.13Z"/><path class="cls-2" d="M306.58,63h2.65v7.91h1.31l2.56-3.75H316l-3.36,4.75v0l3.77,5.84h-3l-2.81-4.65h-1.37v4.65h-2.65Z"/><path class="cls-2" d="M322.73,71.09h.35v-.15c0-1.39-.87-1.87-2-1.87a5.71,5.71,0,0,0-2.92,1l-1-1.89a7.16,7.16,0,0,1,4.17-1.32c2.79,0,4.42,1.54,4.42,4.23v6.65h-2.44v-.88a6.94,6.94,0,0,1,0-.75h0A3.44,3.44,0,0,1,320,78a3.34,3.34,0,0,1-3.6-3.32C316.44,71.32,321,71.09,322.73,71.09Zm-2,4.85a2.73,2.73,0,0,0,2.39-2.79V72.9h-.46c-1.35,0-3.54.19-3.54,1.67A1.41,1.41,0,0,0,320.71,75.94Z"/><path class="cls-2" d="M331.73,79.88c1.62,0,3-.69,3-2.58v-.63a5.25,5.25,0,0,1,0-.56h0a3.24,3.24,0,0,1-3,1.44c-3,0-4.77-2.46-4.77-5.38s1.64-5.29,4.71-5.29a3.59,3.59,0,0,1,3.14,1.36h.06a2.13,2.13,0,0,1,0-.29v-.82h2.48v10c0,3.64-2.83,5-5.6,5a8.5,8.5,0,0,1-3.77-.92l.79-2A7.1,7.1,0,0,0,331.73,79.88Zm3.06-7.69c0-2.41-1.19-3.06-2.63-3.06-1.6,0-2.49,1.17-2.49,3s.95,3.23,2.66,3.23C333.6,75.32,334.79,74.59,334.79,72.19Z"/><path class="cls-2" d="M339.54,63h2.63v2.35h-2.63Zm0,4.16h2.65V77.76h-2.65Z"/><path class="cls-2" d="M344.35,67.13h2.54v1.23a6.78,6.78,0,0,1,0,.73h0a4.14,4.14,0,0,1,3.77-2.21c2.36,0,3.69,1.23,3.69,4v6.84h-2.62V71.47c0-1.3-.34-2.17-1.69-2.17a2.91,2.91,0,0,0-2.85,2.17,4.3,4.3,0,0,0-.19,1.41v4.88h-2.65Z"/><path class="cls-2" d="M360.39,79.88c1.63,0,3-.69,3-2.58v-.63a5.25,5.25,0,0,1,0-.56h0a3.23,3.23,0,0,1-2.95,1.44c-3.05,0-4.77-2.46-4.77-5.38s1.64-5.29,4.7-5.29a3.6,3.6,0,0,1,3.15,1.36h.06a2.13,2.13,0,0,1,0-.29v-.82H366v10c0,3.64-2.83,5-5.6,5a8.46,8.46,0,0,1-3.77-.92l.79-2A7.09,7.09,0,0,0,360.39,79.88Zm3.07-7.69c0-2.41-1.19-3.06-2.63-3.06-1.6,0-2.5,1.17-2.5,3s1,3.23,2.67,3.23C362.27,75.32,363.46,74.59,363.46,72.19Z"/><path class="cls-2" d="M379.52,62.72a7.67,7.67,0,0,1,5.46,2l-1.3,2a6.5,6.5,0,0,0-4-1.56,4.81,4.81,0,0,0-4.95,5.08,5,5,0,0,0,5,5.29A6.34,6.34,0,0,0,384,73.67l1.42,1.94a8,8,0,0,1-5.81,2.4,7.65,7.65,0,0,1,0-15.29Z"/><path class="cls-2" d="M391.73,66.88a5.57,5.57,0,1,1-5.83,5.56A5.59,5.59,0,0,1,391.73,66.88Zm0,8.88a3.32,3.32,0,1,0-3.17-3.32A3.16,3.16,0,0,0,391.75,75.76Z"/><path class="cls-2" d="M399,67.13h2.54v1.23a6.78,6.78,0,0,1,0,.73h0A4,4,0,0,1,405,66.88a2.93,2.93,0,0,1,3.1,2.19h0a4.15,4.15,0,0,1,3.63-2.19c2.2,0,3.47,1.25,3.47,4v6.84h-2.64V71.42c0-1.2-.23-2.12-1.46-2.12a2.76,2.76,0,0,0-2.56,2.42,5.36,5.36,0,0,0-.13,1.37v4.67h-2.64V71.42c0-1.14-.19-2.12-1.44-2.12a2.8,2.8,0,0,0-2.6,2.44,5.2,5.2,0,0,0-.13,1.35v4.67H399Z"/><path class="cls-2" d="M417.23,67.13h2.42v.77a5.44,5.44,0,0,1,0,.73h0a3.78,3.78,0,0,1,3.41-1.75c2.88,0,4.71,2.27,4.71,5.56S425.71,78,422.92,78a3.68,3.68,0,0,1-3.05-1.46h0s0,.37,0,.91v4.46h-2.64Zm5.21,8.65c1.45,0,2.66-1.19,2.66-3.29s-1.08-3.34-2.64-3.34c-1.38,0-2.67,1-2.67,3.36C419.79,74.15,420.69,75.78,422.44,75.78Z"/><path class="cls-2" d="M434.6,71.09H435v-.15c0-1.39-.88-1.87-2-1.87a5.71,5.71,0,0,0-2.92,1l-1-1.89a7.16,7.16,0,0,1,4.17-1.32c2.79,0,4.41,1.54,4.41,4.23v6.65h-2.44v-.88a5.57,5.57,0,0,1,.05-.75h-.05A3.41,3.41,0,0,1,431.92,78a3.34,3.34,0,0,1-3.61-3.32C428.31,71.32,432.87,71.09,434.6,71.09Zm-2,4.85a2.73,2.73,0,0,0,2.4-2.79V72.9h-.46c-1.35,0-3.54.19-3.54,1.67A1.41,1.41,0,0,0,432.58,75.94Z"/><path class="cls-2" d="M439.58,67.13h2.54v1.23a6.78,6.78,0,0,1,0,.73h0a4.14,4.14,0,0,1,3.77-2.21c2.36,0,3.69,1.23,3.69,4v6.84H447V71.47c0-1.3-.34-2.17-1.69-2.17a2.91,2.91,0,0,0-2.85,2.17,4.3,4.3,0,0,0-.19,1.41v4.88h-2.65Z"/><path class="cls-2" d="M451,79.46a2.34,2.34,0,0,0,1.19.44,2,2,0,0,0,1.83-1.37l.4-.94L450,67.13h3l2.23,6.13a14.62,14.62,0,0,1,.39,1.43h0A14.3,14.3,0,0,1,456,73.3l2.08-6.17H461l-4.75,12.23a4,4,0,0,1-3.84,2.77,4,4,0,0,1-2.2-.69Z"/></g><g id="Layer_2" data-name="Layer 2"><path class="cls-1" d="M67.54,69.53C56.3,69.53,56.17,59,56.17,59c.09-8.66,0-37.36,0-37.36S55.43,12,41.67,12s-14,10.24-14,10.24V58.94s-.27,6.92,5.77,6.92,6.39-7.18,6.39-7.18V27.19A1.93,1.93,0,0,1,41.89,25,2,2,0,0,1,44,27.21l-.06,31.58s.59,11-10.46,11-10-10.87-10-10.87l0-36.52S21.65,8,41.67,8,60.28,21.15,60.28,21.15V59s.35,6.83,7.44,6.74h8a41.67,41.67,0,1,0-34,17.63,42.19,42.19,0,0,0,6.4-.49V27.36s-.17-7.09-5.94-7.09-6.17,7-6.17,7V59.69a2.07,2.07,0,0,1-2.12,2,2.21,2.21,0,0,1-2.2-2V24.74s.25-8.57,10.42-8.57S52.3,24.93,52.3,24.93V82a41.65,41.65,0,0,0,20.4-12.5Z"/></g></svg>