<svg xmlns="http://www.w3.org/2000/svg" xmlns:xlink="http://www.w3.org/1999/xlink" viewBox="0 0 75.29 75.13"><defs><style>.cls-1,.cls-2,.cls-3{stroke-miterlimit:10;}.cls-1,.cls-2{stroke-width:0.29px;opacity:0.5;}.cls-1{fill:url(#linear-gradient);stroke:url(#linear-gradient-2);}.cls-2{fill:url(#linear-gradient-3);stroke:url(#New_Gradient_Swatch_2);}.cls-3{stroke-width:1.1px;fill:url(#linear-gradient-4);stroke:url(#New_Gradient_Swatch_2-2);}.cls-4{fill:url(#New_Gradient_Swatch_1);}</style><linearGradient id="linear-gradient" x1="13.85" y1="-3.65" x2="61.68" y2="79.2" gradientUnits="userSpaceOnUse"><stop offset="0" stop-color="#fff" stop-opacity="0.4"/><stop offset="1" stop-color="#0d0d0d" stop-opacity="0"/></linearGradient><linearGradient id="linear-gradient-2" x1="12.56" y1="-5.89" x2="62.73" y2="81.02" gradientUnits="userSpaceOnUse"><stop offset="0" stop-color="#fff" stop-opacity="0.8"/><stop offset="1" stop-color="#0d0d0d" stop-opacity="0"/></linearGradient><linearGradient id="linear-gradient-3" x1="18.01" y1="-98.78" x2="65.84" y2="-15.93" gradientTransform="translate(-4.16 95.13)" gradientUnits="userSpaceOnUse"><stop offset="0" stop-color="#01d8ab" stop-opacity="0.1"/><stop offset="0.02" stop-color="#01d0ab" stop-opacity="0.12"/><stop offset="0.12" stop-color="#01b8ac" stop-opacity="0.18"/><stop offset="0.23" stop-color="#01b1ac" stop-opacity="0.2"/><stop offset="0.77" stop-color="#00a0e0" stop-opacity="0.3"/><stop offset="0.85" stop-color="#02a5e4" stop-opacity="0.32"/><stop offset="0.95" stop-color="#08b4ee" stop-opacity="0.37"/><stop offset="1" stop-color="#0cbdf4" stop-opacity="0.4"/></linearGradient><linearGradient id="New_Gradient_Swatch_2" x1="16.71" y1="-101.02" x2="66.89" y2="-14.11" gradientTransform="translate(-4.16 95.13)" gradientUnits="userSpaceOnUse"><stop offset="0" stop-color="#01d8ab"/><stop offset="0.02" stop-color="#01d0ab"/><stop offset="0.08" stop-color="#01bfac"/><stop offset="0.15" stop-color="#01b4ac"/><stop offset="0.23" stop-color="#01b1ac"/><stop offset="0.77" stop-color="#00a0e0"/><stop offset="0.85" stop-color="#02a5e4"/><stop offset="0.96" stop-color="#09b5ef"/><stop offset="1" stop-color="#0cbdf4"/></linearGradient><linearGradient id="linear-gradient-4" x1="11.88" y1="37.56" x2="63.4" y2="37.56" gradientTransform="matrix(1, 0, 0, 1, 0, 0)" xlink:href="#linear-gradient-3"/><linearGradient id="New_Gradient_Swatch_2-2" x1="11.33" y1="37.46" x2="63.95" y2="37.46" gradientTransform="matrix(1, 0, 0, 1, 0, 0)" xlink:href="#New_Gradient_Swatch_2"/><linearGradient id="New_Gradient_Swatch_1" x1="37.73" y1="24.13" x2="37.73" y2="66.12" gradientUnits="userSpaceOnUse"><stop offset="0" stop-color="#01b2aa"/><stop offset="1" stop-color="#00a0e0"/></linearGradient></defs><g id="Layer_2" data-name="Layer 2"><g id="Layer_6" data-name="Layer 6"><rect class="cls-1" x="0.14" y="0.14" width="75" height="74.84" rx="3.07"/><rect class="cls-2" x="0.14" y="0.14" width="75" height="74.84" rx="3.07" transform="translate(75.29 75.13) rotate(180)"/></g><g id="Layer_5" data-name="Layer 5"><path class="cls-3" d="M37.64,3.78C16.8,24.57,11.88,31.35,11.88,45.58a25.76,25.76,0,1,0,51.52,0C63.4,31.35,59.7,23.74,37.64,3.78Zm0,64.49a23.15,23.15,0,0,1-23-23.33c0-12.89,4.38-18.1,23-36.93,19.66,18.08,23,24,23,36.93A23.15,23.15,0,0,1,37.64,68.27Z"/><path class="cls-4" d="M58.11,46.39c-.52,10.72-8.73,19.73-20.37,19.73A20.33,20.33,0,0,1,17.29,46a28.18,28.18,0,0,0,3.89-.15,2.75,2.75,0,0,1,5.24-1C43.6,40.41,59.12,25.54,58.11,46.39ZM28.69,35.89A5.88,5.88,0,1,0,22.82,30,5.88,5.88,0,0,0,28.69,35.89ZM22.82,39.2a1.66,1.66,0,1,0-1.66-1.66A1.66,1.66,0,0,0,22.82,39.2Z"/></g></g></svg>