<svg xmlns="http://www.w3.org/2000/svg" xmlns:xlink="http://www.w3.org/1999/xlink" viewBox="0 0 75.29 75.13"><defs><style>.cls-1,.cls-2,.cls-4{stroke-miterlimit:10;}.cls-1,.cls-2{stroke-width:0.29px;opacity:0.5;}.cls-1{fill:url(#linear-gradient);stroke:url(#linear-gradient-2);}.cls-2{fill:url(#linear-gradient-3);stroke:url(#New_Gradient_Swatch_2);}.cls-3{fill:url(#New_Gradient_Swatch_1);}.cls-4{fill:url(#linear-gradient-4);stroke:url(#New_Gradient_Swatch_1-2);}</style><linearGradient id="linear-gradient" x1="13.85" y1="-3.65" x2="61.68" y2="79.2" gradientUnits="userSpaceOnUse"><stop offset="0" stop-color="#fff" stop-opacity="0.4"/><stop offset="1" stop-color="#0d0d0d" stop-opacity="0"/></linearGradient><linearGradient id="linear-gradient-2" x1="12.56" y1="-5.89" x2="62.73" y2="81.02" gradientUnits="userSpaceOnUse"><stop offset="0" stop-color="#fff" stop-opacity="0.8"/><stop offset="1" stop-color="#0d0d0d" stop-opacity="0"/></linearGradient><linearGradient id="linear-gradient-3" x1="18.01" y1="-98.78" x2="65.84" y2="-15.93" gradientTransform="translate(-4.16 95.13)" gradientUnits="userSpaceOnUse"><stop offset="0" stop-color="#01d8ab" stop-opacity="0.1"/><stop offset="0.02" stop-color="#01d0ab" stop-opacity="0.12"/><stop offset="0.12" stop-color="#01b8ac" stop-opacity="0.18"/><stop offset="0.23" stop-color="#01b1ac" stop-opacity="0.2"/><stop offset="0.77" stop-color="#00a0e0" stop-opacity="0.3"/><stop offset="0.85" stop-color="#02a5e4" stop-opacity="0.32"/><stop offset="0.95" stop-color="#08b4ee" stop-opacity="0.37"/><stop offset="1" stop-color="#0cbdf4" stop-opacity="0.4"/></linearGradient><linearGradient id="New_Gradient_Swatch_2" x1="16.71" y1="-101.02" x2="66.89" y2="-14.11" gradientTransform="translate(-4.16 95.13)" gradientUnits="userSpaceOnUse"><stop offset="0" stop-color="#01d8ab"/><stop offset="0.02" stop-color="#01d0ab"/><stop offset="0.08" stop-color="#01bfac"/><stop offset="0.15" stop-color="#01b4ac"/><stop offset="0.23" stop-color="#01b1ac"/><stop offset="0.77" stop-color="#00a0e0"/><stop offset="0.85" stop-color="#02a5e4"/><stop offset="0.96" stop-color="#09b5ef"/><stop offset="1" stop-color="#0cbdf4"/></linearGradient><linearGradient id="New_Gradient_Swatch_1" x1="4.35" y1="37.49" x2="71.29" y2="37.49" gradientUnits="userSpaceOnUse"><stop offset="0" stop-color="#01b2aa"/><stop offset="1" stop-color="#00a0e0"/></linearGradient><linearGradient id="linear-gradient-4" x1="2.81" y1="37.56" x2="72.66" y2="37.56" gradientTransform="matrix(1, 0, 0, 1, 0, 0)" xlink:href="#linear-gradient-3"/><linearGradient id="New_Gradient_Swatch_1-2" x1="2.31" y1="37.56" x2="73.16" y2="37.56" xlink:href="#New_Gradient_Swatch_1"/></defs><g id="Layer_2" data-name="Layer 2"><g id="Layer_6" data-name="Layer 6"><rect class="cls-1" x="0.14" y="0.14" width="75" height="74.84" rx="3.07"/><rect class="cls-2" x="0.14" y="0.14" width="75" height="74.84" rx="3.07" transform="translate(75.29 75.13) rotate(180)"/></g><g id="Layer_2-2" data-name="Layer 2"><path class="cls-3" d="M63.13,44.67c.1-.37.2-.75.29-1.13l0-.14c.07-.31.14-.61.2-.92l6.4-1.14a1.49,1.49,0,0,0,1.24-1.48V35.13a1.51,1.51,0,0,0-1.24-1.49l-6.4-1.13a29.12,29.12,0,0,0-.81-3.15,28.1,28.1,0,0,0-1.19-3l4.51-4.68a1.53,1.53,0,0,0,.13-1.94l-2.78-3.82a1.5,1.5,0,0,0-1.88-.48l-5.85,2.85-.69-.63a.52.52,0,0,1-.11-.1l-.9-.74,0,0a27.19,27.19,0,0,0-3.48-2.3L51.44,8a1.51,1.51,0,0,0-1-1.65L45.92,4.93a1.51,1.51,0,0,0-1.8.72l-3.06,5.74h-.12l-.38,0-.16,0-.68-.06-.58,0-.69,0H37.19l-.66,0h-.08l-.47,0h-.17l-.46,0-.39,0h-.15l-.23,0-3-5.74a1.52,1.52,0,0,0-1.8-.72l-4.5,1.46A1.51,1.51,0,0,0,24.2,8l.9,6.43-.2.11-.13.07-.34.21-.4.24-.14.09-.4.25-.06,0-.55.37-.52.37-.5.37c-.19.14-.37.28-.54.43l-.45.37c-.17.14-.35.29-.51.44l-.13.11L20,18.2l-.09.08L14,15.43a1.51,1.51,0,0,0-1.89.48L9.35,19.73a1.52,1.52,0,0,0,.14,1.94L14,26.35a26.07,26.07,0,0,0-1.47,3.9v.06c-.11.38-.21.75-.3,1.13l0,.15c-.07.3-.13.61-.19.91L5.6,33.64a1.52,1.52,0,0,0-1.25,1.49v4.73A1.5,1.5,0,0,0,5.6,41.34L12,42.48a25,25,0,0,0,.81,3.14,24.6,24.6,0,0,0,1.19,3L9.49,53.32a1.5,1.5,0,0,0-.14,1.93l2.78,3.83a1.52,1.52,0,0,0,1.89.47l5.84-2.84.69.62.12.1c.29.26.59.5.9.74l.05,0a25.54,25.54,0,0,0,3.48,2.3L24.2,67a1.5,1.5,0,0,0,1,1.64l4.5,1.47a1.52,1.52,0,0,0,1.8-.73l3.06-5.74h.11l.38,0h.17c.22,0,.45.05.67.06l.58,0,.69,0h1.26l.66,0h.08l.47,0h.17l.46,0,.4,0,.14,0,.23,0,3.06,5.74a1.51,1.51,0,0,0,1.8.73l4.49-1.47a1.5,1.5,0,0,0,1-1.64l-.89-6.44.19-.11.13-.07.35-.2.39-.24.14-.09.4-.26.07,0,.54-.37.52-.36.51-.38.54-.42.44-.37.52-.45.12-.11.29-.26.08-.07,5.85,2.84a1.51,1.51,0,0,0,1.88-.47l2.78-3.83a1.51,1.51,0,0,0-.13-1.93l-4.51-4.68a26.16,26.16,0,0,0,1.46-3.91Zm-19,4.75a13.48,13.48,0,1,1,7.06-13.86A13.49,13.49,0,0,1,44.1,49.42Z"/><path class="cls-4" d="M70.28,32.28l-5.47-1C64.55,30,64.23,29,64.23,29s-.35-1-.91-2.25l3.9-4a3.07,3.07,0,0,0,.47-3.43L66.05,17,64.34,14.7a3.08,3.08,0,0,0-3.41-.62l-5,2.47C55,15.65,54.1,15,54.1,15s-.91-.63-2.07-1.28l.8-5.49a3.08,3.08,0,0,0-1.64-3.05l-2.61-.85-2.64-.8A3.08,3.08,0,0,0,42.82,5L40.24,9.93c-1.31-.15-2.42-.18-2.42-.18s-1.1,0-2.42.18L32.82,5a3.08,3.08,0,0,0-3.12-1.5L27,4.36l-2.71.93a3.08,3.08,0,0,0-1.62,3.06l.82,5.49c-1.15.65-2.06,1.29-2.06,1.29s-.87.67-1.84,1.57l-5-2.44a3.08,3.08,0,0,0-3.4.64L9.52,17l-1.6,2.16a3.07,3.07,0,0,0,.45,3.43l3.87,4c-.56,1.2-.93,2.25-.93,2.25h0s-.32,1.05-.58,2.35l-5.48.92a3.08,3.08,0,0,0-2.4,2.5l0,2.86,0,2.86a3.09,3.09,0,0,0,2.39,2.5l5.48.92c.26,1.3.58,2.36.58,2.36s.36,1,.92,2.25l-3.87,4a3.06,3.06,0,0,0-.46,3.43l1.7,2.46,1.58,2.16a3.09,3.09,0,0,0,3.41.61l5-2.46c1,.9,1.85,1.57,1.85,1.57h0s.91.63,2.07,1.28l-.8,5.49a3.08,3.08,0,0,0,1.64,3l2.61.86,2.63.79a3.08,3.08,0,0,0,3.12-1.5l2.58-4.91c1.32.15,2.43.18,2.43.18s1.1,0,2.42-.18l2.58,4.92a3.08,3.08,0,0,0,3.12,1.5l2.51-.8,2.77-1a3.08,3.08,0,0,0,1.65-3l-.81-5.5C53.09,60.63,54,60,54,60s.88-.67,1.86-1.57l5,2.47a3.1,3.1,0,0,0,3.41-.62L66,58l1.64-2.34a3.07,3.07,0,0,0-.47-3.43l-3.9-4c.55-1.21.91-2.25.91-2.25h0s.32-1.06.57-2.36l5.47-1a3.07,3.07,0,0,0,2.38-2.51l.08-2.69,0-2.69A3.09,3.09,0,0,0,70.28,32.28ZM37.73,49.06A11.57,11.57,0,1,1,49.31,37.49,11.57,11.57,0,0,1,37.73,49.06Z"/></g></g></svg>