<svg xmlns="http://www.w3.org/2000/svg" xmlns:xlink="http://www.w3.org/1999/xlink" viewBox="0 0 75.29 75.13"><defs><style>.cls-1,.cls-2,.cls-3,.cls-4,.cls-5,.cls-6,.cls-7{stroke-miterlimit:10;}.cls-1,.cls-2{stroke-width:0.29px;opacity:0.5;}.cls-1{fill:url(#linear-gradient);stroke:url(#linear-gradient-2);}.cls-2{fill:url(#linear-gradient-3);stroke:url(#New_Gradient_Swatch_2);}.cls-3{stroke-width:1.56px;fill:url(#linear-gradient-4);stroke:url(#New_Gradient_Swatch_1);}.cls-4,.cls-7{stroke-width:1.05px;}.cls-4{fill:url(#New_Gradient_Swatch_1-2);stroke:url(#New_Gradient_Swatch_1-3);}.cls-5{stroke-width:1.19px;fill:url(#New_Gradient_Swatch_1-4);stroke:url(#New_Gradient_Swatch_1-5);}.cls-6{stroke-width:0.97px;fill:url(#New_Gradient_Swatch_2-2);stroke:url(#New_Gradient_Swatch_1-6);}.cls-7{fill:url(#New_Gradient_Swatch_1-7);stroke:url(#linear-gradient-5);}.cls-8{fill:url(#New_Gradient_Swatch_1-8);}</style><linearGradient id="linear-gradient" x1="13.85" y1="-3.65" x2="61.68" y2="79.2" gradientUnits="userSpaceOnUse"><stop offset="0" stop-color="#fff" stop-opacity="0.4"/><stop offset="1" stop-color="#0d0d0d" stop-opacity="0"/></linearGradient><linearGradient id="linear-gradient-2" x1="12.56" y1="-5.89" x2="62.73" y2="81.02" gradientUnits="userSpaceOnUse"><stop offset="0" stop-color="#fff" stop-opacity="0.8"/><stop offset="1" stop-color="#0d0d0d" stop-opacity="0"/></linearGradient><linearGradient id="linear-gradient-3" x1="18.01" y1="-98.78" x2="65.84" y2="-15.93" gradientTransform="translate(-4.16 95.13)" gradientUnits="userSpaceOnUse"><stop offset="0" stop-color="#01d8ab" stop-opacity="0.1"/><stop offset="0.02" stop-color="#01d0ab" stop-opacity="0.12"/><stop offset="0.12" stop-color="#01b8ac" stop-opacity="0.18"/><stop offset="0.23" stop-color="#01b1ac" stop-opacity="0.2"/><stop offset="0.77" stop-color="#00a0e0" stop-opacity="0.3"/><stop offset="0.85" stop-color="#02a5e4" stop-opacity="0.32"/><stop offset="0.95" stop-color="#08b4ee" stop-opacity="0.37"/><stop offset="1" stop-color="#0cbdf4" stop-opacity="0.4"/></linearGradient><linearGradient id="New_Gradient_Swatch_2" x1="16.71" y1="-101.02" x2="66.89" y2="-14.11" gradientTransform="translate(-4.16 95.13)" gradientUnits="userSpaceOnUse"><stop offset="0" stop-color="#01d8ab"/><stop offset="0.02" stop-color="#01d0ab"/><stop offset="0.08" stop-color="#01bfac"/><stop offset="0.15" stop-color="#01b4ac"/><stop offset="0.23" stop-color="#01b1ac"/><stop offset="0.77" stop-color="#00a0e0"/><stop offset="0.85" stop-color="#02a5e4"/><stop offset="0.96" stop-color="#09b5ef"/><stop offset="1" stop-color="#0cbdf4"/></linearGradient><linearGradient id="linear-gradient-4" x1="4.36" y1="37.56" x2="70.93" y2="37.56" gradientTransform="matrix(1, 0, 0, 1, 0, 0)" xlink:href="#linear-gradient-3"/><linearGradient id="New_Gradient_Swatch_1" x1="3.58" y1="37.56" x2="71.71" y2="37.56" gradientUnits="userSpaceOnUse"><stop offset="0" stop-color="#01b2aa"/><stop offset="1" stop-color="#00a0e0"/></linearGradient><linearGradient id="New_Gradient_Swatch_1-2" x1="7.68" y1="65.72" x2="67.61" y2="65.72" xlink:href="#New_Gradient_Swatch_1"/><linearGradient id="New_Gradient_Swatch_1-3" x1="68.13" y1="65.72" x2="7.15" y2="65.72" xlink:href="#New_Gradient_Swatch_1"/><linearGradient id="New_Gradient_Swatch_1-4" x1="11.1" y1="40.29" x2="64.19" y2="40.29" xlink:href="#New_Gradient_Swatch_1"/><linearGradient id="New_Gradient_Swatch_1-5" x1="64.79" y1="40.29" x2="10.5" y2="40.29" xlink:href="#New_Gradient_Swatch_1"/><linearGradient id="New_Gradient_Swatch_2-2" x1="21.84" y1="39.47" x2="53.45" y2="39.47" gradientTransform="matrix(1, 0, 0, 1, 0, 0)" xlink:href="#New_Gradient_Swatch_2"/><linearGradient id="New_Gradient_Swatch_1-6" x1="21.35" y1="39.47" x2="53.94" y2="39.47" xlink:href="#New_Gradient_Swatch_1"/><linearGradient id="New_Gradient_Swatch_1-7" x1="11.1" y1="12.74" x2="64.19" y2="12.74" xlink:href="#New_Gradient_Swatch_1"/><linearGradient id="linear-gradient-5" x1="64.71" y1="12.74" x2="10.57" y2="12.74" gradientUnits="userSpaceOnUse"><stop offset="0" stop-color="#01b0af"/><stop offset="1" stop-color="#00a0e0"/></linearGradient><linearGradient id="New_Gradient_Swatch_1-8" x1="49.28" y1="32.14" x2="49.28" y2="51.98" gradientTransform="matrix(-1, 0, 0, 1, 86.93, 0)" xlink:href="#New_Gradient_Swatch_1"/></defs><g id="Layer_2" data-name="Layer 2"><g id="Layer_6" data-name="Layer 6"><rect class="cls-1" x="0.14" y="0.14" width="75" height="74.84" rx="3.07"/><rect class="cls-2" x="0.14" y="0.14" width="75" height="74.84" rx="3.07" transform="translate(75.29 75.13) rotate(180)"/></g><g id="Layer_5" data-name="Layer 5"><path class="cls-3" d="M67.08,61.34v-52a4.18,4.18,0,0,0-4.17-4.18H12.49A4.29,4.29,0,0,0,8.2,9.47V61.33a4.42,4.42,0,0,0-3.84,4.4V70H70.93V65.78A4.46,4.46,0,0,0,67.08,61.34Z"/><path class="cls-4" d="M9.67,63.61H65.62a2,2,0,0,1,2,2v2.23a0,0,0,0,1,0,0H7.68a0,0,0,0,1,0,0V65.6A2,2,0,0,1,9.67,63.61Z"/><path class="cls-5" d="M11.1,19.26V61.31H64.19v-42ZM37.64,57.5a18,18,0,1,1,18-18A18,18,0,0,1,37.64,57.5Z"/><path class="cls-6" d="M37.64,23.67a15.81,15.81,0,1,0,15.81,15.8A15.8,15.8,0,0,0,37.64,23.67Zm0,29.65A13.85,13.85,0,1,1,51.49,39.47,13.85,13.85,0,0,1,37.64,53.32Z"/><path class="cls-7" d="M62.11,8.19H13.18a2.08,2.08,0,0,0-2.08,2.08v7H64.19v-7A2.08,2.08,0,0,0,62.11,8.19ZM18.07,16a2.32,2.32,0,1,1,2.31-2.32A2.32,2.32,0,0,1,18.07,16Zm7.22,0a2.32,2.32,0,1,1,2.31-2.32A2.32,2.32,0,0,1,25.29,16ZM59.7,16H31.9a1.42,1.42,0,1,1,0-2.84H59.7a1.42,1.42,0,0,1,0,2.84Z"/><path class="cls-8" d="M42.79,41.91a1.3,1.3,0,0,1,2.47.46A9.07,9.07,0,0,0,50,42.2c-1.33,5-6.3,10-12.16,9.78A12.55,12.55,0,0,1,25.49,42C23.59,32.79,34.68,39.82,42.79,41.91Zm1.7-7a2.78,2.78,0,1,0-2.78,2.78A2.77,2.77,0,0,0,44.49,34.91Zm.78,3.56a.78.78,0,0,0-.78-.78.78.78,0,1,0,0,1.56A.78.78,0,0,0,45.27,38.47Z"/></g></g></svg>