<svg xmlns="http://www.w3.org/2000/svg" xmlns:xlink="http://www.w3.org/1999/xlink" viewBox="0 0 75.29 75.13"><defs><style>.cls-1,.cls-2,.cls-3,.cls-4{stroke-miterlimit:10;}.cls-1,.cls-2{stroke-width:0.29px;opacity:0.5;}.cls-1{fill:url(#linear-gradient);stroke:url(#linear-gradient-2);}.cls-2{fill:url(#linear-gradient-3);stroke:url(#New_Gradient_Swatch_2);}.cls-3{stroke-width:1.43px;fill:url(#linear-gradient-4);stroke:url(#New_Gradient_Swatch_1);}.cls-4{stroke-width:1.18px;fill:url(#New_Gradient_Swatch_1-2);stroke:url(#New_Gradient_Swatch_1-3);}</style><linearGradient id="linear-gradient" x1="13.85" y1="-3.65" x2="61.68" y2="79.2" gradientUnits="userSpaceOnUse"><stop offset="0" stop-color="#fff" stop-opacity="0.4"/><stop offset="1" stop-color="#0d0d0d" stop-opacity="0"/></linearGradient><linearGradient id="linear-gradient-2" x1="12.56" y1="-5.89" x2="62.73" y2="81.02" gradientUnits="userSpaceOnUse"><stop offset="0" stop-color="#fff" stop-opacity="0.8"/><stop offset="1" stop-color="#0d0d0d" stop-opacity="0"/></linearGradient><linearGradient id="linear-gradient-3" x1="18.01" y1="-98.78" x2="65.84" y2="-15.93" gradientTransform="translate(-4.16 95.13)" gradientUnits="userSpaceOnUse"><stop offset="0" stop-color="#01d8ab" stop-opacity="0.1"/><stop offset="0.02" stop-color="#01d0ab" stop-opacity="0.12"/><stop offset="0.12" stop-color="#01b8ac" stop-opacity="0.18"/><stop offset="0.23" stop-color="#01b1ac" stop-opacity="0.2"/><stop offset="0.77" stop-color="#00a0e0" stop-opacity="0.3"/><stop offset="0.85" stop-color="#02a5e4" stop-opacity="0.32"/><stop offset="0.95" stop-color="#08b4ee" stop-opacity="0.37"/><stop offset="1" stop-color="#0cbdf4" stop-opacity="0.4"/></linearGradient><linearGradient id="New_Gradient_Swatch_2" x1="16.71" y1="-101.02" x2="66.89" y2="-14.11" gradientTransform="translate(-4.16 95.13)" gradientUnits="userSpaceOnUse"><stop offset="0" stop-color="#01d8ab"/><stop offset="0.02" stop-color="#01d0ab"/><stop offset="0.08" stop-color="#01bfac"/><stop offset="0.15" stop-color="#01b4ac"/><stop offset="0.23" stop-color="#01b1ac"/><stop offset="0.77" stop-color="#00a0e0"/><stop offset="0.85" stop-color="#02a5e4"/><stop offset="0.96" stop-color="#09b5ef"/><stop offset="1" stop-color="#0cbdf4"/></linearGradient><linearGradient id="linear-gradient-4" x1="8.39" y1="37.56" x2="66.89" y2="37.56" gradientTransform="matrix(1, 0, 0, 1, 0, 0)" xlink:href="#linear-gradient-3"/><linearGradient id="New_Gradient_Swatch_1" x1="7.68" y1="37.56" x2="67.61" y2="37.56" gradientUnits="userSpaceOnUse"><stop offset="0" stop-color="#01b2aa"/><stop offset="1" stop-color="#00a0e0"/></linearGradient><linearGradient id="New_Gradient_Swatch_1-2" x1="11.54" y1="36.24" x2="63.93" y2="36.24" xlink:href="#New_Gradient_Swatch_1"/><linearGradient id="New_Gradient_Swatch_1-3" x1="10.95" y1="36.24" x2="64.52" y2="36.24" xlink:href="#New_Gradient_Swatch_1"/></defs><g id="Layer_2" data-name="Layer 2"><g id="Layer_6" data-name="Layer 6"><rect class="cls-1" x="0.14" y="0.14" width="75" height="74.84" rx="3.07"/><rect class="cls-2" x="0.14" y="0.14" width="75" height="74.84" rx="3.07" transform="translate(75.29 75.13) rotate(180)"/></g><g id="Layer_2-2" data-name="Layer 2"><path class="cls-3" d="M66.89,54.06v-33a1,1,0,0,0-.49-.87L38.15,3.72a1,1,0,0,0-1,0L8.89,20.2a1,1,0,0,0-.5.87v33a1,1,0,0,0,.5.86L37.14,71.41a1,1,0,0,0,1,0L66.4,54.92A1,1,0,0,0,66.89,54.06Z"/><path class="cls-4" d="M59.7,22.7,38.62,34.87a1.73,1.73,0,0,1-1.76,0L15.79,22.7a1.76,1.76,0,0,1,0-3.05L36.86,7.48a1.78,1.78,0,0,1,1.76,0L59.7,19.65A1.76,1.76,0,0,1,59.7,22.7Zm-24.44,15L14.19,25.53a1.77,1.77,0,0,0-2.65,1.52V51.3a1.78,1.78,0,0,0,.88,1.53L33.5,65a1.76,1.76,0,0,0,2.64-1.53V39.22A1.76,1.76,0,0,0,35.26,37.69Zm26-12.16L40.22,37.69a1.76,1.76,0,0,0-.88,1.53V63.47A1.76,1.76,0,0,0,42,65L63.05,52.83a1.76,1.76,0,0,0,.88-1.53V27.05A1.76,1.76,0,0,0,61.29,25.53Z"/></g></g></svg>