<svg xmlns="http://www.w3.org/2000/svg" xmlns:xlink="http://www.w3.org/1999/xlink" viewBox="0 0 75.29 75.13"><defs><style>.cls-1,.cls-2,.cls-4{stroke-miterlimit:10;}.cls-1,.cls-2{stroke-width:0.29px;opacity:0.5;}.cls-1{fill:url(#linear-gradient);stroke:url(#linear-gradient-2);}.cls-2{fill:url(#linear-gradient-3);stroke:url(#New_Gradient_Swatch_2);}.cls-3{fill:url(#New_Gradient_Swatch_1);}.cls-4{stroke-width:1.19px;fill:url(#linear-gradient-4);stroke:url(#New_Gradient_Swatch_2-2);}</style><linearGradient id="linear-gradient" x1="13.85" y1="-3.65" x2="61.68" y2="79.2" gradientUnits="userSpaceOnUse"><stop offset="0" stop-color="#fff" stop-opacity="0.4"/><stop offset="1" stop-color="#0d0d0d" stop-opacity="0"/></linearGradient><linearGradient id="linear-gradient-2" x1="12.56" y1="-5.89" x2="62.73" y2="81.02" gradientUnits="userSpaceOnUse"><stop offset="0" stop-color="#fff" stop-opacity="0.8"/><stop offset="1" stop-color="#0d0d0d" stop-opacity="0"/></linearGradient><linearGradient id="linear-gradient-3" x1="18.01" y1="-98.78" x2="65.84" y2="-15.93" gradientTransform="translate(-4.16 95.13)" gradientUnits="userSpaceOnUse"><stop offset="0" stop-color="#01d8ab" stop-opacity="0.1"/><stop offset="0.02" stop-color="#01d0ab" stop-opacity="0.12"/><stop offset="0.12" stop-color="#01b8ac" stop-opacity="0.18"/><stop offset="0.23" stop-color="#01b1ac" stop-opacity="0.2"/><stop offset="0.77" stop-color="#00a0e0" stop-opacity="0.3"/><stop offset="0.85" stop-color="#02a5e4" stop-opacity="0.32"/><stop offset="0.95" stop-color="#08b4ee" stop-opacity="0.37"/><stop offset="1" stop-color="#0cbdf4" stop-opacity="0.4"/></linearGradient><linearGradient id="New_Gradient_Swatch_2" x1="16.71" y1="-101.02" x2="66.89" y2="-14.11" gradientTransform="translate(-4.16 95.13)" gradientUnits="userSpaceOnUse"><stop offset="0" stop-color="#01d8ab"/><stop offset="0.02" stop-color="#01d0ab"/><stop offset="0.08" stop-color="#01bfac"/><stop offset="0.15" stop-color="#01b4ac"/><stop offset="0.23" stop-color="#01b1ac"/><stop offset="0.77" stop-color="#00a0e0"/><stop offset="0.85" stop-color="#02a5e4"/><stop offset="0.96" stop-color="#09b5ef"/><stop offset="1" stop-color="#0cbdf4"/></linearGradient><linearGradient id="New_Gradient_Swatch_1" x1="20.16" y1="75.48" x2="58.4" y2="9.25" gradientUnits="userSpaceOnUse"><stop offset="0" stop-color="#01b2aa"/><stop offset="1" stop-color="#00a0e0"/></linearGradient><linearGradient id="linear-gradient-4" x1="5.93" y1="37.58" x2="69.36" y2="37.58" gradientTransform="matrix(1, 0, 0, 1, 0, 0)" xlink:href="#linear-gradient-3"/><linearGradient id="New_Gradient_Swatch_2-2" x1="5.33" y1="37.58" x2="69.96" y2="37.58" gradientTransform="matrix(1, 0, 0, 1, 0, 0)" xlink:href="#New_Gradient_Swatch_2"/></defs><g id="Layer_2" data-name="Layer 2"><g id="Layer_6" data-name="Layer 6"><rect class="cls-1" x="0.14" y="0.14" width="75" height="74.84" rx="3.07"/><rect class="cls-2" x="0.14" y="0.14" width="75" height="74.84" rx="3.07" transform="translate(75.29 75.13) rotate(180)"/></g><g id="Layer_4" data-name="Layer 4"><path class="cls-3" d="M65.94,21.15l-3.37-1.86V12.64a1.71,1.71,0,0,0-1.71-1.7H56.29a1.7,1.7,0,0,0-1.7,1.7v2.24L39,6.26a2.73,2.73,0,0,0-2.63,0l-27,14.89A2.48,2.48,0,0,0,8,23.32V67.06a2.49,2.49,0,0,0,1.32,2.18H26.18V45.79h23V69.24H65.94a2.49,2.49,0,0,0,1.32-2.18V23.32A2.48,2.48,0,0,0,65.94,21.15Z"/><path class="cls-4" d="M68,20l-3.53-1.95V11.4A2.38,2.38,0,0,0,62.11,9H54.68A2.39,2.39,0,0,0,52.3,11.4h0L39,4A2.79,2.79,0,0,0,36.3,4l-29,16A2.55,2.55,0,0,0,5.93,22.2V69.31a2.55,2.55,0,0,0,1.35,2.23H28.53V48.39H46.75V71.54H68a2.55,2.55,0,0,0,1.35-2.23V22.22A2.54,2.54,0,0,0,68,20Z"/></g></g></svg>