<svg xmlns="http://www.w3.org/2000/svg" xmlns:xlink="http://www.w3.org/1999/xlink" viewBox="0 0 75.29 75.13"><defs><style>.cls-1,.cls-2,.cls-3,.cls-4,.cls-5,.cls-6,.cls-7{stroke-miterlimit:10;}.cls-1,.cls-2{stroke-width:0.29px;opacity:0.5;}.cls-1{fill:url(#linear-gradient);stroke:url(#linear-gradient-2);}.cls-2{fill:url(#linear-gradient-3);stroke:url(#New_Gradient_Swatch_2);}.cls-3{stroke-width:1.02px;fill:url(#linear-gradient-4);stroke:url(#New_Gradient_Swatch_2-2);}.cls-4,.cls-5,.cls-6{stroke-width:1.54px;}.cls-4{fill:url(#New_Gradient_Swatch_2-3);stroke:url(#New_Gradient_Swatch_2-4);}.cls-5{fill:url(#New_Gradient_Swatch_2-5);stroke:url(#New_Gradient_Swatch_2-6);}.cls-6{fill:url(#New_Gradient_Swatch_2-7);stroke:url(#New_Gradient_Swatch_2-8);}.cls-7{stroke-width:1.31px;fill:url(#New_Gradient_Swatch_1);stroke:url(#New_Gradient_Swatch_2-9);}</style><linearGradient id="linear-gradient" x1="13.85" y1="-3.65" x2="61.68" y2="79.2" gradientUnits="userSpaceOnUse"><stop offset="0" stop-color="#fff" stop-opacity="0.4"/><stop offset="1" stop-color="#0d0d0d" stop-opacity="0"/></linearGradient><linearGradient id="linear-gradient-2" x1="12.56" y1="-5.89" x2="62.73" y2="81.02" gradientUnits="userSpaceOnUse"><stop offset="0" stop-color="#fff" stop-opacity="0.8"/><stop offset="1" stop-color="#0d0d0d" stop-opacity="0"/></linearGradient><linearGradient id="linear-gradient-3" x1="18.01" y1="-98.78" x2="65.84" y2="-15.93" gradientTransform="translate(-4.16 95.13)" gradientUnits="userSpaceOnUse"><stop offset="0" stop-color="#01d8ab" stop-opacity="0.1"/><stop offset="0.02" stop-color="#01d0ab" stop-opacity="0.12"/><stop offset="0.12" stop-color="#01b8ac" stop-opacity="0.18"/><stop offset="0.23" stop-color="#01b1ac" stop-opacity="0.2"/><stop offset="0.77" stop-color="#00a0e0" stop-opacity="0.3"/><stop offset="0.85" stop-color="#02a5e4" stop-opacity="0.32"/><stop offset="0.95" stop-color="#08b4ee" stop-opacity="0.37"/><stop offset="1" stop-color="#0cbdf4" stop-opacity="0.4"/></linearGradient><linearGradient id="New_Gradient_Swatch_2" x1="16.71" y1="-101.02" x2="66.89" y2="-14.11" gradientTransform="translate(-4.16 95.13)" gradientUnits="userSpaceOnUse"><stop offset="0" stop-color="#01d8ab"/><stop offset="0.02" stop-color="#01d0ab"/><stop offset="0.08" stop-color="#01bfac"/><stop offset="0.15" stop-color="#01b4ac"/><stop offset="0.23" stop-color="#01b1ac"/><stop offset="0.77" stop-color="#00a0e0"/><stop offset="0.85" stop-color="#02a5e4"/><stop offset="0.96" stop-color="#09b5ef"/><stop offset="1" stop-color="#0cbdf4"/></linearGradient><linearGradient id="linear-gradient-4" x1="5.28" y1="38.16" x2="70.01" y2="38.16" gradientTransform="matrix(1, 0, 0, 1, 0, 0)" xlink:href="#linear-gradient-3"/><linearGradient id="New_Gradient_Swatch_2-2" x1="4.77" y1="38.16" x2="70.52" y2="38.16" gradientTransform="matrix(1, 0, 0, 1, 0, 0)" xlink:href="#New_Gradient_Swatch_2"/><linearGradient id="New_Gradient_Swatch_2-3" x1="8.15" y1="25.09" x2="67.08" y2="25.09" gradientTransform="matrix(1, 0, 0, 1, 0, 0)" xlink:href="#New_Gradient_Swatch_2"/><linearGradient id="New_Gradient_Swatch_2-4" x1="7.38" y1="25.09" x2="67.85" y2="25.09" gradientTransform="matrix(1, 0, 0, 1, 0, 0)" xlink:href="#New_Gradient_Swatch_2"/><linearGradient id="New_Gradient_Swatch_2-5" x1="8.15" y1="41.53" x2="67.08" y2="41.53" gradientTransform="matrix(1, 0, 0, 1, 0, 0)" xlink:href="#New_Gradient_Swatch_2"/><linearGradient id="New_Gradient_Swatch_2-6" x1="7.38" y1="41.53" x2="67.85" y2="41.53" gradientTransform="matrix(1, 0, 0, 1, 0, 0)" xlink:href="#New_Gradient_Swatch_2"/><linearGradient id="New_Gradient_Swatch_2-7" x1="8.15" y1="57.94" x2="67.08" y2="57.94" gradientTransform="matrix(1, 0, 0, 1, 0, 0)" xlink:href="#New_Gradient_Swatch_2"/><linearGradient id="New_Gradient_Swatch_2-8" x1="7.38" y1="57.94" x2="67.85" y2="57.94" gradientTransform="matrix(1, 0, 0, 1, 0, 0)" xlink:href="#New_Gradient_Swatch_2"/><linearGradient id="New_Gradient_Swatch_1" x1="8.15" y1="16.13" x2="67.08" y2="16.13" gradientUnits="userSpaceOnUse"><stop offset="0" stop-color="#01b2aa"/><stop offset="1" stop-color="#00a0e0"/></linearGradient><linearGradient id="New_Gradient_Swatch_2-9" x1="7.5" y1="16.13" x2="67.73" y2="16.13" gradientTransform="matrix(1, 0, 0, 1, 0, 0)" xlink:href="#New_Gradient_Swatch_2"/></defs><g id="Layer_2" data-name="Layer 2"><g id="Layer_6" data-name="Layer 6"><rect class="cls-1" x="0.14" y="0.14" width="75" height="74.84" rx="3.07"/><rect class="cls-2" x="0.14" y="0.14" width="75" height="74.84" rx="3.07" transform="translate(75.29 75.13) rotate(180)"/></g><g id="Layer_8" data-name="Layer 8"><path class="cls-3" d="M70,28.27V14.78c0-3.21-14.47-7.53-32.33-7.53S5.34,11.57,5.34,14.78V28.27c0,.71,0,.71,1.19,2a1.75,1.75,0,0,0-1.19,2V43.94c0,.73.1,1,1.27,2.06a1.82,1.82,0,0,0-1.27,2l-.06,13c0,3.22,14.48,8,32.33,8S70,64.28,70,61.06l.06-13a1.82,1.82,0,0,0-1.28-2C70,44.61,70,44.67,70,43.94V32.3a1.76,1.76,0,0,0-1.19-2C70,28.88,70,29,70,28.27Z"/><path class="cls-4" d="M66,16.65C62.62,19.18,51.2,21,37.62,21s-25-1.86-28.43-4.39a.65.65,0,0,0-1,.52V27c0,3.3,13.19,6.65,29.46,6.65S67.08,30.3,67.08,27V17.17A.65.65,0,0,0,66,16.65ZM27.6,30.26A3.24,3.24,0,1,1,30.83,27,3.24,3.24,0,0,1,27.6,30.26Zm10,0A3.24,3.24,0,1,1,40.85,27,3.23,3.23,0,0,1,37.61,30.26Zm10,0A3.24,3.24,0,1,1,50.86,27,3.23,3.23,0,0,1,47.63,30.26Z"/><path class="cls-5" d="M66,33.1c-3.42,2.53-14.84,4.39-28.42,4.39s-25-1.86-28.43-4.39a.65.65,0,0,0-1,.52v9.83c0,3.3,13.22,6.64,29.49,6.64s29.44-3.34,29.44-6.64V33.62A.65.65,0,0,0,66,33.1ZM27.6,46.71a3.24,3.24,0,1,1,3.23-3.24A3.24,3.24,0,0,1,27.6,46.71Zm10,0a3.24,3.24,0,1,1,3.24-3.24A3.24,3.24,0,0,1,37.61,46.71Zm10,0a3.24,3.24,0,1,1,3.23-3.24A3.24,3.24,0,0,1,47.63,46.71Z"/><path class="cls-6" d="M66,49.55c-3.42,2.53-14.84,4.39-28.42,4.39s-25-1.86-28.43-4.39a.65.65,0,0,0-1,.52V59.9c0,3.3,13.22,6.57,29.49,6.57S67.08,63.2,67.08,59.9V50.07A.65.65,0,0,0,66,49.55ZM27.6,63.15a3.23,3.23,0,1,1,3.23-3.23A3.23,3.23,0,0,1,27.6,63.15Zm10,0a3.23,3.23,0,1,1,3.24-3.23A3.23,3.23,0,0,1,37.61,63.15Zm10,0a3.23,3.23,0,1,1,3.23-3.23A3.23,3.23,0,0,1,47.63,63.15Z"/><path class="cls-7" d="M67.08,16.13c0,3.29-13.19,6-29.46,6s-29.47-2.68-29.47-6,13.2-6,29.47-6S67.08,12.84,67.08,16.13Z"/></g></g></svg>